<mxfile host="Electron" modified="2024-02-26T19:23:14.540Z" agent="Mozilla/5.0 (X11; Linux x86_64) AppleWebKit/537.36 (KHTML, like Gecko) draw.io/21.6.8 Chrome/114.0.5735.289 Electron/25.5.0 Safari/537.36" etag="l_DPwBNx5KIOUQLnDpBo" version="21.6.8" type="device">
  <diagram name="Page-1" id="iuqqwLz7BkI-607aGv1n">
    <mxGraphModel dx="1987" dy="703" grid="1" gridSize="10" guides="1" tooltips="1" connect="1" arrows="1" fold="1" page="1" pageScale="1" pageWidth="850" pageHeight="1100" background="#ffffff" math="0" shadow="0">
      <root>
        <mxCell id="0" />
        <mxCell id="1" parent="0" />
        <mxCell id="JjR7XPa_TNz4uC49e-ML-5" style="edgeStyle=orthogonalEdgeStyle;rounded=0;orthogonalLoop=1;jettySize=auto;html=1;entryX=1;entryY=0.5;entryDx=0;entryDy=0;" edge="1" parent="1" source="JjR7XPa_TNz4uC49e-ML-1" target="JjR7XPa_TNz4uC49e-ML-2">
          <mxGeometry relative="1" as="geometry">
            <Array as="points">
              <mxPoint x="460" y="380" />
              <mxPoint x="460" y="440" />
            </Array>
          </mxGeometry>
        </mxCell>
        <mxCell id="JjR7XPa_TNz4uC49e-ML-6" style="edgeStyle=orthogonalEdgeStyle;rounded=0;orthogonalLoop=1;jettySize=auto;html=1;entryX=1;entryY=0.5;entryDx=0;entryDy=0;" edge="1" parent="1" source="JjR7XPa_TNz4uC49e-ML-1" target="JjR7XPa_TNz4uC49e-ML-3">
          <mxGeometry relative="1" as="geometry">
            <Array as="points">
              <mxPoint x="460" y="380" />
              <mxPoint x="460" y="500" />
            </Array>
          </mxGeometry>
        </mxCell>
        <mxCell id="JjR7XPa_TNz4uC49e-ML-10" style="edgeStyle=orthogonalEdgeStyle;rounded=0;orthogonalLoop=1;jettySize=auto;html=1;" edge="1" parent="1" source="JjR7XPa_TNz4uC49e-ML-1">
          <mxGeometry relative="1" as="geometry">
            <mxPoint x="520" y="380" as="targetPoint" />
          </mxGeometry>
        </mxCell>
        <mxCell id="JjR7XPa_TNz4uC49e-ML-1" value="nÃºmero" style="ellipse;whiteSpace=wrap;html=1;" vertex="1" parent="1">
          <mxGeometry x="360" y="360" width="80" height="40" as="geometry" />
        </mxCell>
        <mxCell id="JjR7XPa_TNz4uC49e-ML-8" style="edgeStyle=orthogonalEdgeStyle;rounded=0;orthogonalLoop=1;jettySize=auto;html=1;entryX=0;entryY=0.5;entryDx=0;entryDy=0;" edge="1" parent="1" source="JjR7XPa_TNz4uC49e-ML-2" target="JjR7XPa_TNz4uC49e-ML-1">
          <mxGeometry relative="1" as="geometry">
            <Array as="points">
              <mxPoint x="340" y="440" />
              <mxPoint x="340" y="380" />
            </Array>
          </mxGeometry>
        </mxCell>
        <mxCell id="JjR7XPa_TNz4uC49e-ML-2" value="/" style="ellipse;whiteSpace=wrap;html=1;" vertex="1" parent="1">
          <mxGeometry x="380" y="420" width="40" height="40" as="geometry" />
        </mxCell>
        <mxCell id="JjR7XPa_TNz4uC49e-ML-7" style="edgeStyle=orthogonalEdgeStyle;rounded=0;orthogonalLoop=1;jettySize=auto;html=1;entryX=0;entryY=0.5;entryDx=0;entryDy=0;" edge="1" parent="1" source="JjR7XPa_TNz4uC49e-ML-3" target="JjR7XPa_TNz4uC49e-ML-1">
          <mxGeometry relative="1" as="geometry">
            <Array as="points">
              <mxPoint x="340" y="500" />
              <mxPoint x="340" y="380" />
            </Array>
          </mxGeometry>
        </mxCell>
        <mxCell id="JjR7XPa_TNz4uC49e-ML-3" value="*" style="ellipse;whiteSpace=wrap;html=1;" vertex="1" parent="1">
          <mxGeometry x="380" y="480" width="40" height="40" as="geometry" />
        </mxCell>
        <mxCell id="JjR7XPa_TNz4uC49e-ML-9" value="" style="endArrow=classic;html=1;rounded=0;entryX=0;entryY=0.5;entryDx=0;entryDy=0;" edge="1" parent="1" target="JjR7XPa_TNz4uC49e-ML-1">
          <mxGeometry width="50" height="50" relative="1" as="geometry">
            <mxPoint x="280" y="380" as="sourcePoint" />
            <mxPoint x="580" y="450" as="targetPoint" />
          </mxGeometry>
        </mxCell>
        <mxCell id="JjR7XPa_TNz4uC49e-ML-11" value="TERM" style="text;html=1;align=center;verticalAlign=middle;resizable=0;points=[];autosize=1;strokeColor=none;fillColor=none;fontStyle=1" vertex="1" parent="1">
          <mxGeometry x="270" y="355" width="60" height="30" as="geometry" />
        </mxCell>
        <mxCell id="JjR7XPa_TNz4uC49e-ML-12" style="edgeStyle=orthogonalEdgeStyle;rounded=0;orthogonalLoop=1;jettySize=auto;html=1;entryX=1;entryY=0.5;entryDx=0;entryDy=0;" edge="1" parent="1" target="JjR7XPa_TNz4uC49e-ML-17">
          <mxGeometry relative="1" as="geometry">
            <Array as="points">
              <mxPoint x="180" y="380" />
              <mxPoint x="180" y="440" />
            </Array>
            <mxPoint x="160" y="380" as="sourcePoint" />
          </mxGeometry>
        </mxCell>
        <mxCell id="JjR7XPa_TNz4uC49e-ML-13" style="edgeStyle=orthogonalEdgeStyle;rounded=0;orthogonalLoop=1;jettySize=auto;html=1;entryX=1;entryY=0.5;entryDx=0;entryDy=0;" edge="1" parent="1" target="JjR7XPa_TNz4uC49e-ML-19">
          <mxGeometry relative="1" as="geometry">
            <Array as="points">
              <mxPoint x="180" y="380" />
              <mxPoint x="180" y="500" />
            </Array>
            <mxPoint x="160" y="380" as="sourcePoint" />
          </mxGeometry>
        </mxCell>
        <mxCell id="JjR7XPa_TNz4uC49e-ML-14" style="edgeStyle=orthogonalEdgeStyle;rounded=0;orthogonalLoop=1;jettySize=auto;html=1;" edge="1" parent="1">
          <mxGeometry relative="1" as="geometry">
            <mxPoint x="240" y="380" as="targetPoint" />
            <mxPoint x="160" y="380" as="sourcePoint" />
          </mxGeometry>
        </mxCell>
        <mxCell id="JjR7XPa_TNz4uC49e-ML-16" style="edgeStyle=orthogonalEdgeStyle;rounded=0;orthogonalLoop=1;jettySize=auto;html=1;entryX=0;entryY=0.5;entryDx=0;entryDy=0;" edge="1" parent="1" source="JjR7XPa_TNz4uC49e-ML-17">
          <mxGeometry relative="1" as="geometry">
            <Array as="points">
              <mxPoint x="60" y="440" />
              <mxPoint x="60" y="380" />
            </Array>
            <mxPoint x="80" y="380" as="targetPoint" />
          </mxGeometry>
        </mxCell>
        <mxCell id="JjR7XPa_TNz4uC49e-ML-17" value="+" style="ellipse;whiteSpace=wrap;html=1;" vertex="1" parent="1">
          <mxGeometry x="100" y="420" width="40" height="40" as="geometry" />
        </mxCell>
        <mxCell id="JjR7XPa_TNz4uC49e-ML-18" style="edgeStyle=orthogonalEdgeStyle;rounded=0;orthogonalLoop=1;jettySize=auto;html=1;entryX=0;entryY=0.5;entryDx=0;entryDy=0;" edge="1" parent="1" source="JjR7XPa_TNz4uC49e-ML-19">
          <mxGeometry relative="1" as="geometry">
            <Array as="points">
              <mxPoint x="60" y="500" />
              <mxPoint x="60" y="380" />
            </Array>
            <mxPoint x="80" y="380" as="targetPoint" />
          </mxGeometry>
        </mxCell>
        <mxCell id="JjR7XPa_TNz4uC49e-ML-19" value="-" style="ellipse;whiteSpace=wrap;html=1;" vertex="1" parent="1">
          <mxGeometry x="100" y="480" width="40" height="40" as="geometry" />
        </mxCell>
        <mxCell id="JjR7XPa_TNz4uC49e-ML-20" value="" style="endArrow=classic;html=1;rounded=0;entryX=0;entryY=0.5;entryDx=0;entryDy=0;" edge="1" parent="1">
          <mxGeometry width="50" height="50" relative="1" as="geometry">
            <mxPoint y="380" as="sourcePoint" />
            <mxPoint x="80" y="380" as="targetPoint" />
          </mxGeometry>
        </mxCell>
        <mxCell id="JjR7XPa_TNz4uC49e-ML-21" value="EXPRESSION" style="text;html=1;align=center;verticalAlign=middle;resizable=0;points=[];autosize=1;strokeColor=none;fillColor=none;fontStyle=1" vertex="1" parent="1">
          <mxGeometry x="-30" y="355" width="100" height="30" as="geometry" />
        </mxCell>
        <mxCell id="JjR7XPa_TNz4uC49e-ML-22" value="TERM" style="rounded=0;whiteSpace=wrap;html=1;" vertex="1" parent="1">
          <mxGeometry x="80" y="360" width="80" height="40" as="geometry" />
        </mxCell>
      </root>
    </mxGraphModel>
  </diagram>
</mxfile>
